<?xml version="1.0" encoding="UTF-8" standalone="no"?>
<!DOCTYPE svg PUBLIC "-//W3C//DTD SVG 1.1//EN"
 "http://www.w3.org/Graphics/SVG/1.1/DTD/svg11.dtd">
<!-- Generated by graphviz version 2.40.1 (20161225.0304)
 -->
<!-- Title: G Pages: 1 -->
<svg width="867pt" height="723pt"
 viewBox="0.00 0.00 867.04 722.84" xmlns="http://www.w3.org/2000/svg" xmlns:xlink="http://www.w3.org/1999/xlink">
<g id="graph0" class="graph" transform="scale(1 1) rotate(0) translate(4 718.8427)">
<title>G</title>
<polygon fill="#ffffff" stroke="transparent" points="-4,4 -4,-718.8427 863.0405,-718.8427 863.0405,4 -4,4"/>
<!-- torch_utils_data_dataloader -->
<g id="node1" class="node">
<title>torch_utils_data_dataloader</title>
<ellipse fill="#3ab03a" stroke="#000000" cx="814.3084" cy="-680.9016" rx="44.9654" ry="33.8824"/>
<text text-anchor="middle" x="814.3084" y="-692.9016" font-family="Helvetica,sans-Serif" font-size="10.00" fill="#ffffff">torch.</text>
<text text-anchor="middle" x="814.3084" y="-682.9016" font-family="Helvetica,sans-Serif" font-size="10.00" fill="#ffffff">utils.</text>
<text text-anchor="middle" x="814.3084" y="-672.9016" font-family="Helvetica,sans-Serif" font-size="10.00" fill="#ffffff">data.</text>
<text text-anchor="middle" x="814.3084" y="-662.9016" font-family="Helvetica,sans-Serif" font-size="10.00" fill="#ffffff">dataloader</text>
</g>
<!-- torch_utils_data -->
<g id="node2" class="node">
<title>torch_utils_data</title>
<ellipse fill="#40c040" stroke="#000000" cx="786.3084" cy="-584.0904" rx="28.9966" ry="26.7407"/>
<text text-anchor="middle" x="786.3084" y="-591.0904" font-family="Helvetica,sans-Serif" font-size="10.00" fill="#000000">torch.</text>
<text text-anchor="middle" x="786.3084" y="-581.0904" font-family="Helvetica,sans-Serif" font-size="10.00" fill="#000000">utils.</text>
<text text-anchor="middle" x="786.3084" y="-571.0904" font-family="Helvetica,sans-Serif" font-size="10.00" fill="#000000">data</text>
</g>
<!-- torch_utils_data_dataloader&#45;&gt;torch_utils_data -->
<g id="edge1" class="edge">
<title>torch_utils_data_dataloader&#45;&gt;torch_utils_data</title>
<path fill="none" stroke="#000000" d="M804.6724,-647.5847C802.0978,-638.683 799.3045,-629.0249 796.6916,-619.9907"/>
<polygon fill="#000000" stroke="#000000" points="799.9801,-618.7634 793.8395,-610.1295 793.2557,-620.7083 799.9801,-618.7634"/>
</g>
<!-- vr_data -->
<g id="node16" class="node">
<title>vr_data</title>
<ellipse fill="#883a3a" stroke="#000000" cx="764.3084" cy="-341.4802" rx="27" ry="18"/>
<text text-anchor="middle" x="764.3084" y="-338.4802" font-family="Helvetica,sans-Serif" font-size="10.00" fill="#ffffff">vr.data</text>
</g>
<!-- torch_utils_data_dataloader&#45;&gt;vr_data -->
<g id="edge27" class="edge">
<title>torch_utils_data_dataloader&#45;&gt;vr_data</title>
<path fill="none" stroke="#000000" d="M823.2134,-647.4911C828.4613,-622.255 832.6085,-586.9987 824.3084,-557.2203 815.542,-525.7695 776.5005,-525.4921 786.3084,-494.3503"/>
</g>
<!-- torch_utils_data&#45;&gt;vr_data -->
<g id="edge28" class="edge">
<title>torch_utils_data&#45;&gt;vr_data</title>
<path fill="none" stroke="#000000" d="M782.152,-557.1422C780.3474,-538.9783 779.8966,-514.7089 786.3084,-494.3503"/>
</g>
<!-- torch_nn -->
<g id="node3" class="node">
<title>torch_nn</title>
<ellipse fill="#05e505" stroke="#000000" cx="464.3084" cy="-584.0904" rx="30.1981" ry="18"/>
<text text-anchor="middle" x="464.3084" y="-581.0904" font-family="Helvetica,sans-Serif" font-size="10.00" fill="#000000">torch.nn</text>
</g>
<!-- torch_nn&#45;&gt;torch_nn -->
<g id="edge53" class="edge">
<title>torch_nn&#45;&gt;torch_nn</title>
<path fill="none" stroke="#000000" d="M482.8189,-598.3658C497.4228,-603.8879 512.4073,-599.1295 512.4073,-584.0904 512.4073,-572.4586 503.4435,-566.9768 492.6249,-567.6448"/>
<polygon fill="#000000" stroke="#000000" points="491.8263,-564.2368 482.8189,-569.815 493.339,-571.0714 491.8263,-564.2368"/>
</g>
<!-- vr_models_seq2seq -->
<g id="node4" class="node">
<title>vr_models_seq2seq</title>
<ellipse fill="#913030" stroke="#000000" cx="126.3084" cy="-260.6102" rx="38.0955" ry="26.7407"/>
<text text-anchor="middle" x="126.3084" y="-267.6102" font-family="Helvetica,sans-Serif" font-size="10.00" fill="#ffffff">vr.</text>
<text text-anchor="middle" x="126.3084" y="-257.6102" font-family="Helvetica,sans-Serif" font-size="10.00" fill="#ffffff">models.</text>
<text text-anchor="middle" x="126.3084" y="-247.6102" font-family="Helvetica,sans-Serif" font-size="10.00" fill="#ffffff">seq2seq</text>
</g>
<!-- torch_nn&#45;&gt;vr_models_seq2seq -->
<g id="edge2" class="edge">
<title>torch_nn&#45;&gt;vr_models_seq2seq</title>
<path fill="none" stroke="#000000" d="M435.3814,-578.7872C337.5174,-560.0751 26.2336,-493.9126 50.3084,-413.4802"/>
</g>
<!-- torch -->
<g id="node6" class="node">
<title>torch</title>
<ellipse fill="#05c705" stroke="#000000" cx="539.3084" cy="-494.3503" rx="27" ry="18"/>
<text text-anchor="middle" x="539.3084" y="-491.3503" font-family="Helvetica,sans-Serif" font-size="10.00" fill="#ffffff">torch</text>
</g>
<!-- torch_nn&#45;&gt;torch -->
<g id="edge22" class="edge">
<title>torch_nn&#45;&gt;torch</title>
<path fill="none" stroke="#000000" d="M478.0645,-567.6307C489.7323,-553.6698 506.6097,-533.4754 519.6937,-517.8199"/>
<polygon fill="#000000" stroke="#000000" points="522.4152,-520.0214 526.1424,-510.1038 517.044,-515.5324 522.4152,-520.0214"/>
</g>
<!-- vr_models_film_gen -->
<g id="node12" class="node">
<title>vr_models_film_gen</title>
<ellipse fill="#822b2b" stroke="#000000" cx="363.3084" cy="-170.8701" rx="38.0817" ry="26.7407"/>
<text text-anchor="middle" x="363.3084" y="-177.8701" font-family="Helvetica,sans-Serif" font-size="10.00" fill="#ffffff">vr.</text>
<text text-anchor="middle" x="363.3084" y="-167.8701" font-family="Helvetica,sans-Serif" font-size="10.00" fill="#ffffff">models.</text>
<text text-anchor="middle" x="363.3084" y="-157.8701" font-family="Helvetica,sans-Serif" font-size="10.00" fill="#ffffff">film_gen</text>
</g>
<!-- torch_nn&#45;&gt;vr_models_film_gen -->
<g id="edge10" class="edge">
<title>torch_nn&#45;&gt;vr_models_film_gen</title>
<path fill="none" stroke="#000000" d="M270.3084,-413.4802C260.1725,-379.169 223.8315,-375.6889 234.3084,-341.4802"/>
<path fill="none" stroke="#000000" d="M435.2192,-579.2896C384.6346,-570.2833 283.8795,-549.2086 263.3084,-521.2203 234.8899,-482.5552 283.903,-459.4997 270.3084,-413.4802"/>
</g>
<!-- vr_models_layers -->
<g id="node13" class="node">
<title>vr_models_layers</title>
<ellipse fill="#bf2121" stroke="#000000" cx="378.3084" cy="-260.6102" rx="36.1458" ry="26.7407"/>
<text text-anchor="middle" x="378.3084" y="-267.6102" font-family="Helvetica,sans-Serif" font-size="10.00" fill="#ffffff">vr.</text>
<text text-anchor="middle" x="378.3084" y="-257.6102" font-family="Helvetica,sans-Serif" font-size="10.00" fill="#ffffff">models.</text>
<text text-anchor="middle" x="378.3084" y="-247.6102" font-family="Helvetica,sans-Serif" font-size="10.00" fill="#ffffff">layers</text>
</g>
<!-- torch_nn&#45;&gt;vr_models_layers -->
<g id="edge41" class="edge">
<title>torch_nn&#45;&gt;vr_models_layers</title>
<path fill="none" stroke="#000000" d="M460.1176,-565.9813C450.1879,-523.4446 424.1192,-413.9155 398.3084,-323.4802 395.796,-314.6775 392.9031,-305.2435 390.112,-296.4303"/>
<polygon fill="#000000" stroke="#000000" points="393.4141,-295.2656 387.0298,-286.8104 386.7479,-297.4015 393.4141,-295.2656"/>
</g>
<!-- vr_models_module_net -->
<g id="node18" class="node">
<title>vr_models_module_net</title>
<ellipse fill="#8a2e2e" stroke="#000000" cx="567.3084" cy="-170.8701" rx="48.0364" ry="26.7407"/>
<text text-anchor="middle" x="567.3084" y="-177.8701" font-family="Helvetica,sans-Serif" font-size="10.00" fill="#ffffff">vr.</text>
<text text-anchor="middle" x="567.3084" y="-167.8701" font-family="Helvetica,sans-Serif" font-size="10.00" fill="#ffffff">models.</text>
<text text-anchor="middle" x="567.3084" y="-157.8701" font-family="Helvetica,sans-Serif" font-size="10.00" fill="#ffffff">module_net</text>
</g>
<!-- torch_nn&#45;&gt;vr_models_module_net -->
<g id="edge30" class="edge">
<title>torch_nn&#45;&gt;vr_models_module_net</title>
<path fill="none" stroke="#000000" d="M612.3084,-413.4802C610.1927,-381.5502 606.5032,-372.9493 612.3084,-341.4802"/>
</g>
<!-- vr_models_baselines -->
<g id="node19" class="node">
<title>vr_models_baselines</title>
<ellipse fill="#8a2e2e" stroke="#000000" cx="460.3084" cy="-170.8701" rx="41.3802" ry="26.7407"/>
<text text-anchor="middle" x="460.3084" y="-177.8701" font-family="Helvetica,sans-Serif" font-size="10.00" fill="#ffffff">vr.</text>
<text text-anchor="middle" x="460.3084" y="-167.8701" font-family="Helvetica,sans-Serif" font-size="10.00" fill="#ffffff">models.</text>
<text text-anchor="middle" x="460.3084" y="-157.8701" font-family="Helvetica,sans-Serif" font-size="10.00" fill="#ffffff">baselines</text>
</g>
<!-- torch_nn&#45;&gt;vr_models_baselines -->
<g id="edge47" class="edge">
<title>torch_nn&#45;&gt;vr_models_baselines</title>
<path fill="none" stroke="#000000" d="M612.3084,-413.4802C606.2872,-367.0652 526.8608,-257.6388 485.2923,-203.0329"/>
<polygon fill="#000000" stroke="#000000" points="488.0598,-200.89 479.2049,-195.0727 482.4993,-205.1423 488.0598,-200.89"/>
<path fill="none" stroke="#000000" d="M488.3623,-573.0543C524.7266,-556.273 589.8591,-525.7962 593.3084,-521.2203 622.5769,-482.3927 617.614,-461.8133 612.3084,-413.4802"/>
</g>
<!-- vr_models -->
<g id="node11" class="node">
<title>vr_models</title>
<ellipse fill="#c20a0a" stroke="#000000" cx="460.3084" cy="-90" rx="33.894" ry="18"/>
<text text-anchor="middle" x="460.3084" y="-87" font-family="Helvetica,sans-Serif" font-size="10.00" fill="#ffffff">vr.models</text>
</g>
<!-- vr_models_seq2seq&#45;&gt;vr_models -->
<g id="edge39" class="edge">
<title>vr_models_seq2seq&#45;&gt;vr_models</title>
<path fill="none" stroke="#000000" d="M153.3687,-241.6965C189.3935,-217.064 255.631,-173.6566 316.3084,-144 350.7913,-127.1461 391.9527,-112.1933 421.4196,-102.3207"/>
<polygon fill="#000000" stroke="#000000" points="422.5431,-105.6356 430.9378,-99.172 420.3446,-98.9898 422.5431,-105.6356"/>
</g>
<!-- torch_nn_functional -->
<g id="node5" class="node">
<title>torch_nn_functional</title>
<ellipse fill="#18dd18" stroke="#000000" cx="314.3084" cy="-494.3503" rx="41.6667" ry="26.7407"/>
<text text-anchor="middle" x="314.3084" y="-501.3503" font-family="Helvetica,sans-Serif" font-size="10.00" fill="#000000">torch.</text>
<text text-anchor="middle" x="314.3084" y="-491.3503" font-family="Helvetica,sans-Serif" font-size="10.00" fill="#000000">nn.</text>
<text text-anchor="middle" x="314.3084" y="-481.3503" font-family="Helvetica,sans-Serif" font-size="10.00" fill="#000000">functional</text>
</g>
<!-- torch_nn_functional&#45;&gt;vr_models_seq2seq -->
<g id="edge3" class="edge">
<title>torch_nn_functional&#45;&gt;vr_models_seq2seq</title>
<path fill="none" stroke="#000000" d="M126.3084,-413.4802C106.8418,-388.0823 126.0121,-373.4789 126.3084,-341.4802"/>
<path fill="none" stroke="#000000" d="M273.4501,-488.5977C229.7619,-480.1553 161.9718,-460.0103 126.3084,-413.4802"/>
</g>
<!-- torch_nn_functional&#45;&gt;vr_models_film_gen -->
<g id="edge12" class="edge">
<title>torch_nn_functional&#45;&gt;vr_models_film_gen</title>
<path fill="none" stroke="#000000" d="M297.3246,-469.6993C287.623,-454.2664 276.2404,-433.5608 270.3084,-413.4802"/>
</g>
<!-- torch_nn_functional&#45;&gt;vr_models_layers -->
<g id="edge42" class="edge">
<title>torch_nn_functional&#45;&gt;vr_models_layers</title>
<path fill="none" stroke="#000000" d="M346.3084,-341.4802C346.3084,-325.2864 351.9249,-308.4673 358.4518,-294.3891"/>
<polygon fill="#000000" stroke="#000000" points="361.7412,-295.6346 363.0581,-285.1219 355.4729,-292.5189 361.7412,-295.6346"/>
</g>
<!-- torch_nn_functional&#45;&gt;vr_models_module_net -->
<g id="edge32" class="edge">
<title>torch_nn_functional&#45;&gt;vr_models_module_net</title>
<path fill="none" stroke="#000000" d="M335.6628,-471.1846C372.2312,-430.7117 447.7771,-343.5164 498.3084,-260.6102"/>
<path fill="none" stroke="#000000" d="M498.3084,-260.6102C509.333,-239.884 525.0924,-218.9611 538.7676,-202.5377"/>
<polygon fill="#000000" stroke="#000000" points="541.4831,-204.7471 545.2836,-194.8574 536.1453,-200.2185 541.4831,-204.7471"/>
</g>
<!-- torch_nn_functional&#45;&gt;vr_models_baselines -->
<g id="edge49" class="edge">
<title>torch_nn_functional&#45;&gt;vr_models_baselines</title>
<path fill="none" stroke="#000000" d="M346.3084,-341.4802C346.3084,-302.8264 298.1898,-295.7429 314.3084,-260.6102"/>
<path fill="none" stroke="#000000" d="M323.3073,-467.9151C332.7721,-437.7129 346.3084,-386.627 346.3084,-341.4802"/>
</g>
<!-- torch&#45;&gt;vr_models_seq2seq -->
<g id="edge4" class="edge">
<title>torch&#45;&gt;vr_models_seq2seq</title>
<path fill="none" stroke="#000000" d="M512.8545,-490.2351C425.1883,-476.5843 149.4869,-433.5417 145.3084,-431.4802 134.8766,-426.3338 133.3846,-422.7126 126.3084,-413.4802"/>
</g>
<!-- torch&#45;&gt;torch -->
<g id="edge18" class="edge">
<title>torch&#45;&gt;torch</title>
<path fill="none" stroke="#000000" d="M557.798,-507.7353C571.079,-512.0932 584.3084,-507.6315 584.3084,-494.3503 584.3084,-484.4931 577.0211,-479.4941 567.8339,-479.3533"/>
<polygon fill="#000000" stroke="#000000" points="567.1163,-475.9237 557.798,-480.9653 568.2265,-482.8351 567.1163,-475.9237"/>
</g>
<!-- vr_utils -->
<g id="node10" class="node">
<title>vr_utils</title>
<ellipse fill="#a44646" stroke="#000000" cx="555.3084" cy="-18" rx="27" ry="18"/>
<text text-anchor="middle" x="555.3084" y="-15" font-family="Helvetica,sans-Serif" font-size="10.00" fill="#ffffff">vr.utils</text>
</g>
<!-- torch&#45;&gt;vr_utils -->
<g id="edge8" class="edge">
<title>torch&#45;&gt;vr_utils</title>
<path fill="none" stroke="#000000" d="M561.6015,-483.8247C581.4927,-473.3024 609.9318,-455.2737 626.3084,-431.4802 649.7795,-397.3792 650.3084,-382.878 650.3084,-341.4802 650.3084,-341.4802 650.3084,-341.4802 650.3084,-170.8701 650.3084,-117.4593 607.9559,-67.2208 579.808,-39.7297"/>
<polygon fill="#000000" stroke="#000000" points="581.9547,-36.9417 572.2925,-32.5953 577.1353,-42.0185 581.9547,-36.9417"/>
</g>
<!-- torch&#45;&gt;vr_models_film_gen -->
<g id="edge13" class="edge">
<title>torch&#45;&gt;vr_models_film_gen</title>
<path fill="none" stroke="#000000" d="M460.3084,-260.6102C442.8496,-236.4078 418.0892,-213.6313 397.955,-197.0803"/>
<polygon fill="#000000" stroke="#000000" points="399.9087,-194.1596 389.9275,-190.6063 395.5144,-199.6084 399.9087,-194.1596"/>
<path fill="none" stroke="#000000" d="M536.3084,-341.4802C507.4535,-301.478 489.1642,-300.6118 460.3084,-260.6102"/>
</g>
<!-- torch&#45;&gt;vr_models_layers -->
<g id="edge43" class="edge">
<title>torch&#45;&gt;vr_models_layers</title>
<path fill="none" stroke="#000000" d="M536.3084,-341.4802C521.6327,-321.1349 461.7132,-293.9569 420.0368,-276.8672"/>
<polygon fill="#000000" stroke="#000000" points="421.2422,-273.5792 410.6598,-273.0652 418.6119,-280.0663 421.2422,-273.5792"/>
<path fill="none" stroke="#000000" d="M543.2458,-476.3483C546.8489,-459.9499 552.357,-435.0704 557.3084,-413.4802"/>
<path fill="none" stroke="#000000" d="M557.3084,-413.4802C564.7594,-380.9903 555.8089,-368.5143 536.3084,-341.4802"/>
</g>
<!-- torch&#45;&gt;vr_data -->
<g id="edge25" class="edge">
<title>torch&#45;&gt;vr_data</title>
<path fill="none" stroke="#000000" d="M786.3084,-413.4802C791.8378,-398.2018 786.8095,-380.7838 780.1731,-366.9069"/>
<polygon fill="#000000" stroke="#000000" points="783.1987,-365.1412 775.4317,-357.9353 777.0098,-368.412 783.1987,-365.1412"/>
<path fill="none" stroke="#000000" d="M566.0223,-490.7274C626.6946,-481.7834 770.8377,-456.2271 786.3084,-413.4802"/>
</g>
<!-- torch&#45;&gt;vr_models_module_net -->
<g id="edge33" class="edge">
<title>torch&#45;&gt;vr_models_module_net</title>
<path fill="none" stroke="#000000" d="M557.3084,-413.4802C566.3096,-374.2309 605.0032,-381.0803 612.3084,-341.4802"/>
<path fill="none" stroke="#000000" d="M612.3084,-341.4802C618.8287,-306.1344 625.7172,-293.9576 612.3084,-260.6102"/>
<path fill="none" stroke="#000000" d="M612.3084,-260.6102C604.8619,-242.091 595.0721,-222.1816 586.5258,-205.8321"/>
<polygon fill="#000000" stroke="#000000" points="589.4384,-203.8533 581.6647,-196.6546 583.2525,-207.1298 589.4384,-203.8533"/>
</g>
<!-- torch&#45;&gt;vr_models_baselines -->
<g id="edge50" class="edge">
<title>torch&#45;&gt;vr_models_baselines</title>
<path fill="none" stroke="#000000" d="M460.3084,-260.6102C449.4127,-245.5059 448.6925,-224.9404 451.0206,-207.3073"/>
<polygon fill="#000000" stroke="#000000" points="454.4921,-207.7678 452.6897,-197.3274 447.588,-206.6131 454.4921,-207.7678"/>
</g>
<!-- torch_cuda -->
<g id="node7" class="node">
<title>torch_cuda</title>
<ellipse fill="#24d024" stroke="#000000" cx="93.3084" cy="-584.0904" rx="36.3943" ry="18"/>
<text text-anchor="middle" x="93.3084" y="-581.0904" font-family="Helvetica,sans-Serif" font-size="10.00" fill="#000000">torch.cuda</text>
</g>
<!-- torch_cuda&#45;&gt;vr_models_seq2seq -->
<g id="edge5" class="edge">
<title>torch_cuda&#45;&gt;vr_models_seq2seq</title>
<path fill="none" stroke="#000000" d="M74.1539,-568.587C61.226,-556.9779 44.9931,-539.9292 36.3084,-521.2203 2.3744,-448.1191 -12.0456,-418.306 12.3084,-341.4802"/>
<path fill="none" stroke="#000000" d="M12.3084,-341.4802C24.6723,-310.7734 56.2303,-289.8289 83.0155,-276.9619"/>
<polygon fill="#000000" stroke="#000000" points="84.6086,-280.0821 92.2515,-272.7447 81.7011,-273.7145 84.6086,-280.0821"/>
</g>
<!-- torch_cuda&#45;&gt;torch -->
<g id="edge23" class="edge">
<title>torch_cuda&#45;&gt;torch</title>
<path fill="none" stroke="#000000" d="M124.9907,-574.9661C144.813,-569.4308 170.9354,-562.4503 194.3084,-557.2203 305.7936,-532.2742 439.2024,-510.1203 502.4978,-500.0681"/>
<polygon fill="#000000" stroke="#000000" points="503.4298,-503.4643 512.7612,-498.4468 502.3375,-496.5501 503.4298,-503.4643"/>
</g>
<!-- torch_cuda&#45;&gt;torch_cuda -->
<g id="edge46" class="edge">
<title>torch_cuda&#45;&gt;torch_cuda</title>
<path fill="none" stroke="#000000" d="M115.0121,-598.6407C131.1948,-603.7218 147.505,-598.8717 147.505,-584.0904 147.505,-572.4271 137.3499,-566.9471 125.1155,-567.6504"/>
<polygon fill="#000000" stroke="#000000" points="124.1982,-564.2612 115.0121,-569.5401 125.4852,-571.1419 124.1982,-564.2612"/>
</g>
<!-- torch_cuda&#45;&gt;vr_models_film_gen -->
<g id="edge14" class="edge">
<title>torch_cuda&#45;&gt;vr_models_film_gen</title>
<path fill="none" stroke="#000000" d="M12.3084,-341.4802C33.3697,-289.1728 33.2896,-266.3271 79.3084,-233.7401 116.9198,-207.1066 245.2683,-186.4919 315.8464,-176.8524"/>
<polygon fill="#000000" stroke="#000000" points="316.3787,-180.3125 325.8228,-175.5104 315.4454,-173.3749 316.3787,-180.3125"/>
</g>
<!-- vr_embedding -->
<g id="node8" class="node">
<title>vr_embedding</title>
<ellipse fill="#db2f2f" stroke="#000000" cx="198.3084" cy="-413.4802" rx="43.8082" ry="18"/>
<text text-anchor="middle" x="198.3084" y="-410.4802" font-family="Helvetica,sans-Serif" font-size="10.00" fill="#ffffff">vr.embedding</text>
</g>
<!-- vr_embedding&#45;&gt;vr_models_seq2seq -->
<g id="edge6" class="edge">
<title>vr_embedding&#45;&gt;vr_models_seq2seq</title>
<path fill="none" stroke="#000000" d="M170.1343,-399.5695C149.8439,-387.3485 126.0678,-367.4653 126.3084,-341.4802"/>
</g>
<!-- vr_embedding&#45;&gt;vr_models_film_gen -->
<g id="edge15" class="edge">
<title>vr_embedding&#45;&gt;vr_models_film_gen</title>
<path fill="none" stroke="#000000" d="M209.227,-395.8302C217.4643,-381.6648 228.3333,-360.9899 234.3084,-341.4802"/>
</g>
<!-- vr_embedding&#45;&gt;vr_models_baselines -->
<g id="edge51" class="edge">
<title>vr_embedding&#45;&gt;vr_models_baselines</title>
<path fill="none" stroke="#000000" d="M233.8385,-402.8153C261.1816,-392.3165 296.267,-373.1635 308.3084,-341.4802"/>
<path fill="none" stroke="#000000" d="M308.3084,-341.4802C321.1124,-307.7903 299.2793,-293.3681 314.3084,-260.6102"/>
<path fill="none" stroke="#000000" d="M314.3084,-260.6102C335.5761,-214.254 364.7268,-220.621 410.3084,-197.7401 413.3964,-196.19 416.5765,-194.5604 419.7655,-192.9023"/>
<polygon fill="#000000" stroke="#000000" points="421.4885,-195.9507 428.7073,-188.1957 418.2281,-189.7563 421.4885,-195.9507"/>
</g>
<!-- torch_autograd -->
<g id="node9" class="node">
<title>torch_autograd</title>
<ellipse fill="#0ce90c" stroke="#000000" cx="249.3084" cy="-584.0904" rx="46.4388" ry="18"/>
<text text-anchor="middle" x="249.3084" y="-581.0904" font-family="Helvetica,sans-Serif" font-size="10.00" fill="#000000">torch.autograd</text>
</g>
<!-- torch_autograd&#45;&gt;vr_models_seq2seq -->
<g id="edge7" class="edge">
<title>torch_autograd&#45;&gt;vr_models_seq2seq</title>
<path fill="none" stroke="#000000" d="M50.3084,-413.4802C63.6504,-368.9053 125.8776,-388.0071 126.3084,-341.4802"/>
<path fill="none" stroke="#000000" d="M50.3084,-494.3503C34.4101,-462.1154 40.002,-447.9131 50.3084,-413.4802"/>
<path fill="none" stroke="#000000" d="M212.1974,-573.122C167.999,-559.6541 97.2597,-536.6984 74.3084,-521.2203 61.0328,-512.2675 57.3911,-508.711 50.3084,-494.3503"/>
<path fill="none" stroke="#000000" d="M126.3084,-341.4802C126.441,-327.1601 126.4679,-311.413 126.4523,-297.6494"/>
<polygon fill="#000000" stroke="#000000" points="129.9522,-297.5607 126.4332,-287.5674 122.9523,-297.5741 129.9522,-297.5607"/>
</g>
<!-- torch_autograd&#45;&gt;torch -->
<g id="edge19" class="edge">
<title>torch_autograd&#45;&gt;torch</title>
<path fill="none" stroke="#000000" d="M286.7935,-573.3909C329.0842,-561.2109 399.8571,-540.4992 460.3084,-521.2203 475.1908,-516.4741 491.5518,-510.959 505.5054,-506.1649"/>
<polygon fill="#000000" stroke="#000000" points="506.8747,-509.3949 515.1848,-502.8227 504.59,-502.7782 506.8747,-509.3949"/>
</g>
<!-- torch_autograd&#45;&gt;torch_autograd -->
<g id="edge17" class="edge">
<title>torch_autograd&#45;&gt;torch_autograd</title>
<path fill="none" stroke="#000000" d="M276.1333,-598.8975C295.047,-603.5495 313.7777,-598.6138 313.7777,-584.0904 313.7777,-572.1766 301.1736,-566.7146 286.2036,-567.7043"/>
<polygon fill="#000000" stroke="#000000" points="285.4704,-564.2764 276.1333,-569.2833 286.5548,-571.1919 285.4704,-564.2764"/>
</g>
<!-- torch_autograd&#45;&gt;vr_models_film_gen -->
<g id="edge16" class="edge">
<title>torch_autograd&#45;&gt;vr_models_film_gen</title>
<path fill="none" stroke="#000000" d="M234.3084,-341.4802C252.0767,-283.4636 299.7178,-230.0016 331.8583,-198.9162"/>
<polygon fill="#000000" stroke="#000000" points="334.4254,-201.305 339.266,-191.8806 329.6048,-196.2294 334.4254,-201.305"/>
<path fill="none" stroke="#000000" d="M50.3084,-494.3503C23.353,-439.6964 97.7461,-433.5783 145.3084,-395.4802 181.419,-366.5551 209.8976,-380.7836 234.3084,-341.4802"/>
</g>
<!-- torch_autograd&#45;&gt;vr_models_module_net -->
<g id="edge35" class="edge">
<title>torch_autograd&#45;&gt;vr_models_module_net</title>
<path fill="none" stroke="#000000" d="M283.1902,-571.633C308.1756,-561.1449 341.7745,-544.1693 365.3084,-521.2203 424.6752,-463.329 422.0068,-434.0324 458.3084,-359.4802 479.0605,-316.8619 476.0475,-302.4602 498.3084,-260.6102"/>
</g>
<!-- torch_autograd&#45;&gt;vr_models_baselines -->
<g id="edge52" class="edge">
<title>torch_autograd&#45;&gt;vr_models_baselines</title>
<path fill="none" stroke="#000000" d="M249.2299,-565.8115C249.6375,-542.4189 252.0855,-500.9224 263.3084,-467.4802 269.2016,-449.9195 277.1918,-448.5818 284.3084,-431.4802 300.2133,-393.2597 293.6013,-380.1775 308.3084,-341.4802"/>
</g>
<!-- vr_models&#45;&gt;vr_utils -->
<g id="edge9" class="edge">
<title>vr_models&#45;&gt;vr_utils</title>
<path fill="none" stroke="#000000" d="M479.9924,-75.0816C494.2078,-64.3078 513.555,-49.6446 529.0808,-37.8777"/>
<polygon fill="#000000" stroke="#000000" points="531.4006,-40.5112 537.2562,-31.6816 527.1724,-34.9324 531.4006,-40.5112"/>
</g>
<!-- vr_models&#45;&gt;vr_models -->
<g id="edge40" class="edge">
<title>vr_models&#45;&gt;vr_models</title>
<path fill="none" stroke="#000000" d="M484.6235,-102.7082C498.896,-105.4157 512.2553,-101.1797 512.2553,-90 512.2553,-81.5279 504.5834,-77.0434 494.6559,-76.5464"/>
<polygon fill="#000000" stroke="#000000" points="494.3367,-73.0604 484.6235,-77.2918 494.8554,-80.0412 494.3367,-73.0604"/>
</g>
<!-- vr_models_film_gen&#45;&gt;vr_models -->
<g id="edge37" class="edge">
<title>vr_models_film_gen&#45;&gt;vr_models</title>
<path fill="none" stroke="#000000" d="M388.0365,-150.2539C402.113,-138.5182 419.7387,-123.8234 434.0598,-111.8838"/>
<polygon fill="#000000" stroke="#000000" points="436.6185,-114.3074 442.0581,-105.2155 432.136,-108.9308 436.6185,-114.3074"/>
</g>
<!-- vr_models_layers&#45;&gt;vr_models_film_gen -->
<g id="edge11" class="edge">
<title>vr_models_layers&#45;&gt;vr_models_film_gen</title>
<path fill="none" stroke="#000000" d="M373.8079,-233.6852C372.4433,-225.5215 370.9202,-216.409 369.4665,-207.7123"/>
<polygon fill="#000000" stroke="#000000" points="372.9065,-207.0622 367.8057,-197.776 366.0023,-208.2163 372.9065,-207.0622"/>
</g>
<!-- vr_models_layers&#45;&gt;vr_models_module_net -->
<g id="edge31" class="edge">
<title>vr_models_layers&#45;&gt;vr_models_module_net</title>
<path fill="none" stroke="#000000" d="M409.0951,-245.9921C439.5334,-231.5396 486.479,-209.2491 521.3357,-192.6986"/>
<polygon fill="#000000" stroke="#000000" points="522.8381,-195.8598 530.3703,-188.4088 519.8356,-189.5364 522.8381,-195.8598"/>
</g>
<!-- vr_models_layers&#45;&gt;vr_models_baselines -->
<g id="edge48" class="edge">
<title>vr_models_layers&#45;&gt;vr_models_baselines</title>
<path fill="none" stroke="#000000" d="M399.0004,-237.965C409.0417,-226.9759 421.2572,-213.6074 432.1336,-201.7043"/>
<polygon fill="#000000" stroke="#000000" points="434.8896,-203.8768 439.0513,-194.1336 429.722,-199.1549 434.8896,-203.8768"/>
</g>
<!-- torch_utils -->
<g id="node14" class="node">
<title>torch_utils</title>
<ellipse fill="#3bce3b" stroke="#000000" cx="705.3084" cy="-584.0904" rx="33.8884" ry="18"/>
<text text-anchor="middle" x="705.3084" y="-581.0904" font-family="Helvetica,sans-Serif" font-size="10.00" fill="#000000">torch.utils</text>
</g>
<!-- torch_utils&#45;&gt;torch -->
<g id="edge20" class="edge">
<title>torch_utils&#45;&gt;torch</title>
<path fill="none" stroke="#000000" d="M681.5246,-571.2328C651.9872,-555.2648 601.5727,-528.0106 569.3818,-510.6081"/>
<polygon fill="#000000" stroke="#000000" points="570.8806,-507.4397 560.4193,-505.7629 567.5516,-513.5974 570.8806,-507.4397"/>
</g>
<!-- torch_utils&#45;&gt;vr_data -->
<g id="edge24" class="edge">
<title>torch_utils&#45;&gt;vr_data</title>
<path fill="none" stroke="#000000" d="M726.2998,-569.5031C746.7374,-553.765 776.1579,-526.58 786.3084,-494.3503"/>
</g>
<!-- numpy -->
<g id="node15" class="node">
<title>numpy</title>
<ellipse fill="#3333cc" stroke="#000000" cx="559.3084" cy="-584.0904" rx="27" ry="18"/>
<text text-anchor="middle" x="559.3084" y="-581.0904" font-family="Helvetica,sans-Serif" font-size="10.00" fill="#ffffff">numpy</text>
</g>
<!-- numpy&#45;&gt;torch -->
<g id="edge21" class="edge">
<title>numpy&#45;&gt;torch</title>
<path fill="none" stroke="#000000" d="M555.2611,-565.9302C552.4505,-553.3191 548.6536,-536.2823 545.4691,-521.9935"/>
<polygon fill="#000000" stroke="#000000" points="548.873,-521.1764 543.2814,-512.1773 542.0406,-522.6992 548.873,-521.1764"/>
</g>
<!-- numpy&#45;&gt;numpy -->
<g id="edge45" class="edge">
<title>numpy&#45;&gt;numpy</title>
<path fill="none" stroke="#000000" d="M576.3921,-598.2701C590.1287,-603.942 604.3084,-599.2154 604.3084,-584.0904 604.3084,-572.6285 596.1653,-567.1382 586.2428,-567.6195"/>
<polygon fill="#000000" stroke="#000000" points="585.3392,-564.2362 576.3921,-569.9107 586.9251,-571.0542 585.3392,-564.2362"/>
</g>
<!-- numpy&#45;&gt;vr_data -->
<g id="edge29" class="edge">
<title>numpy&#45;&gt;vr_data</title>
<path fill="none" stroke="#000000" d="M584.0625,-576.6516C641.5795,-559.054 779.8638,-514.8131 786.3084,-494.3503"/>
<path fill="none" stroke="#000000" d="M786.3084,-494.3503C797.1053,-460.0681 774.0768,-447.2772 786.3084,-413.4802"/>
</g>
<!-- vr_programs -->
<g id="node17" class="node">
<title>vr_programs</title>
<ellipse fill="#ce3b3b" stroke="#000000" cx="718.3084" cy="-413.4802" rx="39.9421" ry="18"/>
<text text-anchor="middle" x="718.3084" y="-410.4802" font-family="Helvetica,sans-Serif" font-size="10.00" fill="#ffffff">vr.programs</text>
</g>
<!-- vr_programs&#45;&gt;vr_data -->
<g id="edge26" class="edge">
<title>vr_programs&#45;&gt;vr_data</title>
<path fill="none" stroke="#000000" d="M729.4437,-396.051C735.0624,-387.2566 741.982,-376.4259 748.1715,-366.7379"/>
<polygon fill="#000000" stroke="#000000" points="751.1578,-368.5645 753.5923,-358.2531 745.259,-364.7957 751.1578,-368.5645"/>
</g>
<!-- vr_programs&#45;&gt;vr_models_module_net -->
<g id="edge34" class="edge">
<title>vr_programs&#45;&gt;vr_models_module_net</title>
<path fill="none" stroke="#000000" d="M703.6637,-396.2473C681.1975,-369.0479 638.124,-313.7756 612.3084,-260.6102"/>
</g>
<!-- vr_models_module_net&#45;&gt;vr_models -->
<g id="edge38" class="edge">
<title>vr_models_module_net&#45;&gt;vr_models</title>
<path fill="none" stroke="#000000" d="M538.6343,-149.1984C522.965,-137.3555 503.6448,-122.7535 488.1136,-111.015"/>
<polygon fill="#000000" stroke="#000000" points="490.0103,-108.0614 479.9221,-104.824 485.7896,-113.6458 490.0103,-108.0614"/>
</g>
<!-- vr_models_baselines&#45;&gt;vr_models -->
<g id="edge36" class="edge">
<title>vr_models_baselines&#45;&gt;vr_models</title>
<path fill="none" stroke="#000000" d="M460.3084,-143.9415C460.3084,-135.6709 460.3084,-126.5487 460.3084,-118.1957"/>
<polygon fill="#000000" stroke="#000000" points="463.8085,-118.1488 460.3084,-108.1488 456.8085,-118.1489 463.8085,-118.1488"/>
</g>
<!-- torch_nn_init -->
<g id="node20" class="node">
<title>torch_nn_init</title>
<ellipse fill="#40c040" stroke="#000000" cx="434.3084" cy="-680.9016" rx="39.1669" ry="18"/>
<text text-anchor="middle" x="434.3084" y="-677.9016" font-family="Helvetica,sans-Serif" font-size="10.00" fill="#000000">torch.nn.init</text>
</g>
<!-- torch_nn_init&#45;&gt;torch_nn -->
<g id="edge54" class="edge">
<title>torch_nn_init&#45;&gt;torch_nn</title>
<path fill="none" stroke="#000000" d="M439.9511,-662.6921C444.4209,-648.268 450.7364,-627.8878 455.8164,-611.4943"/>
<polygon fill="#000000" stroke="#000000" points="459.1754,-612.479 458.7923,-601.8911 452.4891,-610.407 459.1754,-612.479"/>
</g>
<!-- torch_nn_init&#45;&gt;vr_models_layers -->
<g id="edge44" class="edge">
<title>torch_nn_init&#45;&gt;vr_models_layers</title>
<path fill="none" stroke="#000000" d="M426.1637,-663.0584C411.9956,-630.3385 384.3084,-558.2259 384.3084,-494.3503 384.3084,-494.3503 384.3084,-494.3503 384.3084,-413.4802 384.3084,-374.0401 382.2896,-328.9204 380.5941,-297.9797"/>
<polygon fill="#000000" stroke="#000000" points="384.0697,-297.4464 380.0117,-287.6595 377.0808,-297.8409 384.0697,-297.4464"/>
</g>
</g>
</svg>
